<svg width="24" height="32" viewBox="0 0 24 32" fill="none" xmlns="http://www.w3.org/2000/svg">
<path fill-rule="evenodd" clip-rule="evenodd" d="M13.2031 2.39824V7.19824C13.2031 9.18725 14.8141 10.7982 16.8031 10.7982H21.6031C22.2661 10.7982 22.8031 10.2613 22.8031 9.59824C22.8031 8.93523 22.2661 8.39824 21.6031 8.39824H16.8031C16.1401 8.39824 15.6031 7.86126 15.6031 7.19824V2.39824C15.6031 1.73523 15.0661 1.19824 14.4031 1.19824C13.7401 1.19824 13.2031 1.73523 13.2031 2.39824Z" fill="#31302F"/>
<path fill-rule="evenodd" clip-rule="evenodd" d="M24 9.59999C24.0015 9.28648 23.8785 8.97898 23.649 8.751L15.249 0.350999C15.024 0.125998 14.718 0 14.4 0H3.6C2.64449 0 1.7295 0.3795 1.0545 1.0545C0.379507 1.7295 0 2.64449 0 3.6V27.6C0 28.5555 0.379499 29.4705 1.0545 30.1455C1.7295 30.8205 2.64449 31.2 3.6 31.2H20.4C21.3555 31.2 22.2705 30.8205 22.9455 30.1455C23.6205 29.4705 24 28.5555 24 27.6L24 9.59999ZM21.6015 10.095V27.5985C21.6015 27.9165 21.4755 28.2225 21.2505 28.4475C21.0255 28.6725 20.7195 28.7985 20.4015 28.7985H3.6015C3.2835 28.7985 2.9775 28.6725 2.75251 28.4475C2.52751 28.2225 2.40151 27.9165 2.40151 27.5985V3.59849C2.40151 3.28049 2.52751 2.97449 2.75251 2.7495C2.97751 2.5245 3.28351 2.3985 3.6015 2.3985H13.905L21.6015 10.095Z" fill="#31302F"/>
<path fill-rule="evenodd" clip-rule="evenodd" d="M14.7502 14.7495L7.55023 21.9495C7.08221 22.4175 7.08221 23.1779 7.55023 23.646C8.01825 24.114 8.77873 24.114 9.24674 23.646L16.4467 16.446C16.9148 15.9779 16.9148 15.2175 16.4467 14.7495C15.9787 14.2814 15.2183 14.2814 14.7502 14.7495Z" fill="#31302F"/>
<path fill-rule="evenodd" clip-rule="evenodd" d="M7.55023 16.4479L14.7502 23.6479C15.2183 24.1159 15.9787 24.1159 16.4467 23.6479C16.9148 23.1799 16.9148 22.4194 16.4467 21.9514L9.24674 14.7514C8.77873 14.2834 8.01825 14.2834 7.55023 14.7514C7.08221 15.2194 7.08221 15.9799 7.55023 16.4479Z" fill="#31302F"/>
</svg>
