<svg width="29" height="32" viewBox="0 0 29 32" fill="none" xmlns="http://www.w3.org/2000/svg">
<path d="M27.7851 16.5764H21.4482V0.490399C21.4482 0.361118 21.3968 0.237132 21.3054 0.145717C21.214 0.0543013 21.09 0.00294469 20.9607 0.00294469H7.40221H7.36565C7.29326 -0.00504859 7.22 0.00328144 7.15125 0.0273225C7.0825 0.0513637 7.02001 0.0905047 6.96838 0.141869L0.144019 6.96622C0.11381 6.99782 0.0876143 7.03302 0.0660268 7.07103L0.0514032 7.09784C0.0321695 7.13555 0.0182271 7.17574 0.00996958 7.21726C0.00236035 7.24918 -0.000918773 7.28197 0.000220513 7.31475V30.7125C0.000220513 30.8418 0.0515771 30.9658 0.142992 31.0572C0.234408 31.1486 0.358394 31.2 0.487675 31.2H20.9607C21.09 31.2 21.214 31.1486 21.3054 31.0572C21.3968 30.9658 21.4482 30.8418 21.4482 30.7125V27.3004H27.7851C27.9144 27.3004 28.0384 27.249 28.1298 27.1576C28.2212 27.0662 28.2726 26.9422 28.2726 26.8129V17.0638C28.2726 16.9346 28.2212 16.8106 28.1298 16.7192C28.0384 16.6277 27.9144 16.5764 27.7851 16.5764ZM6.82458 1.6676V6.8273H1.66488L6.82458 1.6676ZM20.4733 30.2251H0.975128V7.80221H7.31203C7.44131 7.80221 7.5653 7.75085 7.65671 7.65944C7.74813 7.56802 7.79948 7.44404 7.79948 7.31475V0.977853H20.4733V16.5764H9.01812C8.88884 16.5764 8.76485 16.6277 8.67344 16.7192C8.58202 16.8106 8.53067 16.9346 8.53067 17.0638V26.8129C8.53067 26.9422 8.58202 27.0662 8.67344 27.1576C8.76485 27.249 8.88884 27.3004 9.01812 27.3004H20.4733V30.2251ZM27.2976 26.3255H9.50557V17.5513H27.2976V26.3255Z" fill="#31302F"/>
<path d="M17.7921 24.3755H19.0108C19.6572 24.3755 20.2771 24.1187 20.7342 23.6617C21.1913 23.2046 21.448 22.5847 21.448 21.9382C21.448 21.2918 21.1913 20.6719 20.7342 20.2148C20.2771 19.7578 19.6572 19.501 19.0108 19.501H17.7921C17.6629 19.501 17.5389 19.5523 17.4475 19.6437C17.356 19.7352 17.3047 19.8591 17.3047 19.9884V23.8881C17.3047 24.0173 17.356 24.1413 17.4475 24.2327C17.5389 24.3242 17.6629 24.3755 17.7921 24.3755ZM18.2796 20.4759H19.0108C19.3986 20.4759 19.7706 20.63 20.0448 20.9042C20.3191 21.1784 20.4731 21.5504 20.4731 21.9382C20.4731 22.3261 20.3191 22.698 20.0448 22.9723C19.7706 23.2465 19.3986 23.4006 19.0108 23.4006H18.2796V20.4759Z" fill="#31302F"/>
<path d="M22.6671 24.3755C22.7964 24.3755 22.9204 24.3242 23.0118 24.2327C23.1032 24.1413 23.1546 24.0173 23.1546 23.8881V22.4257H24.1295C24.2588 22.4257 24.3828 22.3743 24.4742 22.2829C24.5656 22.1915 24.617 22.0675 24.617 21.9382C24.617 21.809 24.5656 21.685 24.4742 21.5936C24.3828 21.5021 24.2588 21.4508 24.1295 21.4508H23.1546V20.4759H24.8607C24.99 20.4759 25.114 20.4245 25.2054 20.3331C25.2968 20.2417 25.3481 20.1177 25.3481 19.9884C25.3481 19.8591 25.2968 19.7352 25.2054 19.6437C25.114 19.5523 24.99 19.501 24.8607 19.501H22.6671C22.5379 19.501 22.4139 19.5523 22.3225 19.6437C22.231 19.7352 22.1797 19.8591 22.1797 19.9884V23.8881C22.1797 24.0173 22.231 24.1413 22.3225 24.2327C22.4139 24.3242 22.5379 24.3755 22.6671 24.3755Z" fill="#31302F"/>
<path d="M13.4054 24.3755C13.5347 24.3755 13.6587 24.3242 13.7501 24.2327C13.8415 24.1413 13.8929 24.0173 13.8929 23.8881V22.9132H14.8678C15.3203 22.9132 15.7542 22.7334 16.0742 22.4135C16.3941 22.0935 16.5739 21.6595 16.5739 21.2071C16.5739 20.7546 16.3941 20.3206 16.0742 20.0007C15.7542 19.6807 15.3203 19.501 14.8678 19.501H13.4054C13.2761 19.501 13.1522 19.5523 13.0607 19.6437C12.9693 19.7352 12.918 19.8591 12.918 19.9884V23.8881C12.918 24.0173 12.9693 24.1413 13.0607 24.2327C13.1522 24.3242 13.2761 24.3755 13.4054 24.3755ZM15.599 21.2071C15.6093 21.3056 15.5975 21.4053 15.5644 21.4987C15.5313 21.5921 15.4778 21.6769 15.4077 21.747C15.3376 21.8171 15.2528 21.8706 15.1594 21.9037C15.066 21.9368 14.9663 21.9486 14.8678 21.9382H13.8929V20.4759H14.8678C14.9663 20.4655 15.066 20.4773 15.1594 20.5104C15.2528 20.5435 15.3376 20.5971 15.4077 20.6671C15.4778 20.7372 15.5313 20.8221 15.5644 20.9155C15.5975 21.0089 15.6093 21.1085 15.599 21.2071Z" fill="#31302F"/>
<path d="M11.9406 24.3753C12.2098 24.3753 12.428 24.1571 12.428 23.8878C12.428 23.6186 12.2098 23.4004 11.9406 23.4004C11.6714 23.4004 11.4531 23.6186 11.4531 23.8878C11.4531 24.1571 11.6714 24.3753 11.9406 24.3753Z" fill="#31302F"/>
</svg>
