<svg width="24" height="24" viewBox="0 0 24 24" fill="#31302f" xmlns="http://www.w3.org/2000/svg">
    <path fill-rule="evenodd" clip-rule="evenodd" d="M4.50556 6.00001C6.2539 3.81903 8.93456 2.41762 11.9431 2.40017C11.9844 2.39993 12.0256 2.39996 12.0668 2.40023C14.6279 2.41769 16.9507 3.43798 18.6622 5.08804C18.7615 5.18374 18.8587 5.28161 18.9539 5.38162C20.5632 7.07199 21.5626 9.34842 21.5989 11.8579C21.6005 11.9573 21.6004 12.0567 21.5988 12.1561C21.5591 14.6449 20.5723 16.9036 18.9833 18.5875C18.8563 18.7221 18.7254 18.853 18.5907 18.9803C16.9039 20.5734 14.6401 21.5619 12.1457 21.5989C12.0536 21.6004 11.9614 21.6004 11.8691 21.5992C7.03179 21.5345 3.05818 17.8921 2.47398 13.1976C2.39213 12.54 1.86275 12 1.2 12C0.537264 12 -0.00622787 12.5386 0.0599282 13.198C0.100512 13.6026 0.161532 14.0038 0.242424 14.4C0.6678 16.4838 1.64273 18.4323 3.08584 20.0335C5.07231 22.2378 7.80499 23.6279 10.7563 23.9353C13.7076 24.2429 16.6681 23.4461 19.0663 21.6988C21.4647 19.9515 23.1305 17.3776 23.7423 14.4741C24.354 11.5705 23.8683 8.54335 22.3789 5.97693C20.8896 3.4105 18.5022 1.48689 15.6778 0.577478C12.8533 -0.33193 9.79201 -0.162622 7.08508 1.0527C5.21782 1.89104 3.61048 3.18608 2.4 4.79997V2.4C2.4 1.73727 1.86274 1.2 1.2 1.2C0.537264 1.2 0 1.73727 0 2.4V7.20001V8.40001H1.2H6C6.66274 8.40001 7.20001 7.86274 7.20001 7.20001C7.20001 6.53727 6.66274 6.00001 6 6.00001H4.50556Z" fill="#31302f"/>
</svg>
